<?xml version="1.0" standalone="no"?>
<!DOCTYPE svg PUBLIC "-//W3C//DTD SVG 20010904//EN"
 "http://www.w3.org/TR/2001/REC-SVG-20010904/DTD/svg10.dtd">
<svg version="1.0" xmlns="http://www.w3.org/2000/svg"
 width="494.000000pt" height="494.000000pt" viewBox="0 0 494.000000 494.000000"
 preserveAspectRatio="xMidYMid meet">
<metadata>
Created by potrace 1.14, written by Peter Selinger 2001-2017
</metadata>
<g transform="translate(0.000000,494.000000) scale(0.100000,-0.100000)"
fill="#000000" stroke="none">
<path d="M434 4920 c-90 -32 -188 -104 -258 -190 -28 -35 -81 -157 -95 -220
-9 -42 -11 -522 -9 -2080 2 -1114 6 -2034 8 -2045 3 -11 7 -22 10 -25 3 -3 20
-35 38 -72 19 -37 51 -87 72 -111 37 -41 38 -45 22 -62 -16 -16 -16 -17 6 -4
21 13 25 12 43 -11 12 -14 18 -18 14 -10 -5 13 -4 13 7 0 7 -9 28 -22 45 -29
18 -7 30 -18 27 -23 -4 -6 -10 -5 -15 3 -6 10 -9 11 -9 2 0 -7 -3 -12 -7 -12
-20 3 -33 -2 -33 -12 0 -8 4 -8 14 0 10 8 16 9 21 2 4 -7 15 -5 33 7 24 15 25
15 20 0 -4 -10 -1 -19 8 -22 8 -3 930 -6 2049 -6 1592 0 2041 2 2058 12 12 7
24 13 27 14 3 0 23 9 44 18 32 14 41 15 48 4 8 -10 9 -9 5 4 -3 9 1 22 9 28 8
7 14 9 14 5 0 -3 12 7 26 24 14 17 30 28 35 25 5 -3 8 0 7 8 -2 7 3 12 10 10
8 -1 11 2 8 6 -9 16 40 66 55 56 12 -6 12 -5 1 8 -10 13 -10 18 1 29 7 8 19
29 26 46 7 18 16 31 20 29 3 -2 7 10 8 27 1 17 7 35 13 41 7 7 10 666 10 2044
0 2241 4 2082 -62 2214 -47 93 -153 195 -253 244 l-80 39 -1995 2 c-1913 2
-1997 1 -2046 -17z"/>
<path d="M70 336 c0 -2 7 -7 16 -10 8 -3 12 -2 9 4 -6 10 -25 14 -25 6z"/>
<path d="M155 189 c-4 -6 -5 -12 -2 -15 2 -3 7 2 10 11 7 17 1 20 -8 4z"/>
<path d="M170 165 c-11 -13 -10 -14 4 -9 9 3 16 10 16 15 0 13 -6 11 -20 -6z"/>
<path d="M227 79 c7 -7 15 -10 18 -7 3 3 -2 9 -12 12 -14 6 -15 5 -6 -5z"/>
<path d="M4665 49 c-4 -6 -5 -12 -2 -15 2 -3 7 2 10 11 7 17 1 20 -8 4z"/>
<path d="M176 42 c-3 -5 1 -9 9 -9 8 0 12 4 9 9 -3 4 -7 8 -9 8 -2 0 -6 -4 -9
-8z"/>
<path d="M265 29 c-11 -16 -1 -19 13 -3 7 8 8 14 3 14 -5 0 -13 -5 -16 -11z"/>
<path d="M4555 20 c3 -5 8 -10 11 -10 2 0 4 5 4 10 0 6 -5 10 -11 10 -5 0 -7
-4 -4 -10z"/>
</g>
</svg>
